<svg xmlns="http://www.w3.org/2000/svg" version="1.1" xmlns:xlink="http://www.w3.org/1999/xlink" xmlns:svgjs="http://svgjs.dev/svgjs" width="1500" height="1500" viewBox="0 0 1500 1500"><rect width="1500" height="1500" fill="#000000"></rect><g transform="matrix(0.6666666666666666,0,0,0.6666666666666666,249.39393939393938,655.6369662389983)"><svg viewBox="0 0 396 75" data-background-color="#1976d2" preserveAspectRatio="xMidYMid meet" height="284" width="1500" xmlns="http://www.w3.org/2000/svg" xmlns:xlink="http://www.w3.org/1999/xlink"><g id="tight-bounds" transform="matrix(1,0,0,1,0.2400000000000091,-0.12027711932148577)"><svg viewBox="0 0 395.52 75.240554238643" height="75.240554238643" width="395.52"><g><svg viewBox="0 0 589.0387171465143 112.05400370682392" height="75.240554238643" width="395.52"><g><rect width="7.3119722822092665" height="81.48644987363099" x="414.6612886968829" y="15.283776916596466" fill="#ffffff" opacity="1" stroke-width="0" stroke="transparent" fill-opacity="1" class="rect-qz-0" data-fill-palette-color="primary" rx="1%" id="qz-0" data-palette-color="#ffffff"></rect></g><g transform="matrix(1,0,0,1,0,15.48647952822241)"><svg viewBox="0 0 395.52 81.0810446503791" height="81.0810446503791" width="395.52"><g id="textblocktransform"><svg viewBox="0 0 395.52 81.0810446503791" height="81.0810446503791" width="395.52" id="textblock"><g><svg viewBox="0 0 395.52 81.0810446503791" height="81.0810446503791" width="395.52"><g transform="matrix(1,0,0,1,0,0)"><svg width="395.52" viewBox="4.6 -36 178.04 36.5" height="81.0810446503791" data-palette-color="#ffffff"><g class="wordmark-text-0" data-fill-palette-color="primary" id="text-0"><path d="M16.5-34.3Q20.8-34.3 24-32.43 27.2-30.55 28.95-27.08 30.7-23.6 30.7-18.9L30.7-18.9 30.7-15.4Q30.7-10.7 28.95-7.23 27.2-3.75 24-1.88 20.8 0 16.5 0L16.5 0 4.6 0 4.6-34.3 16.5-34.3ZM16.5-29.85L9.5-29.85 9.5-4.45 16.5-4.45Q20.95-4.45 23.38-7.23 25.8-10 25.8-15.4L25.8-15.4 25.8-18.9Q25.8-24.2 23.43-27.03 21.05-29.85 16.5-29.85L16.5-29.85ZM48.15-26.05Q51.3-26.05 53.72-24.73 56.15-23.4 57.5-20.95 58.85-18.5 58.85-15.25L58.85-15.25 58.85-11.7 41-11.7Q41.1-7.65 42.9-5.45 44.7-3.25 48.25-3.25L48.25-3.25Q51.4-3.25 52.9-5.1 54.4-6.95 54.4-9.5L54.4-9.5 58.85-9.5Q58.85-6.5 57.47-4.25 56.1-2 53.67-0.75 51.25 0.5 48.15 0.5L48.15 0.5 47.95 0.5Q42.55 0.5 39.42-2.98 36.3-6.45 36.3-12.25L36.3-12.25 36.3-13.25Q36.3-17.05 37.7-19.95 39.1-22.85 41.7-24.45 44.3-26.05 47.8-26.05L47.8-26.05 48.15-26.05ZM47.9-22.3Q45.05-22.3 43.27-20.55 41.5-18.8 41.1-15.35L41.1-15.35 54.2-15.35 54.2-15.95Q54.2-18.8 52.47-20.55 50.75-22.3 47.9-22.3L47.9-22.3ZM81.95-25.55L86.55-25.55 76.84 0 71.84 0 62.15-25.55 67.14-25.55 74.45-6 74.65-6 81.95-25.55ZM91.74-34.3L96.64-34.3 96.64-4.45 112.39-4.45 113.09 0 91.74 0 91.74-34.3ZM117.99-36L122.89-36 122.89-31.65 117.99-31.65 117.99-36ZM118.09-25.55L122.79-25.55 122.79 0 118.09 0 118.09-25.55ZM143.69-26.05Q147.89-26.05 150.29-23.8 152.69-21.55 152.69-17.2L152.69-17.2 152.69 0 147.99 0 147.99-16.35Q147.99-22.3 142.59-22.3L142.59-22.3Q140.79-22.3 139.24-21.35 137.69-20.4 136.74-18.78 135.79-17.15 135.79-15.2L135.79-15.2 135.79 0 131.09 0 131.09-25.55 134.49-25.55 135.14-21.8Q138.34-26.05 143.69-26.05L143.69-26.05ZM160.74-36L165.44-36 165.44-11.3 176.84-25.55 181.99-25.55 172.14-13.15 182.64 0 176.94 0 169.28-9.5 165.44-5.5 165.44 0 160.74 0 160.74-36Z" fill="#ffffff" data-fill-palette-color="primary"></path></g></svg></g></svg></g></svg></g></svg></g><g transform="matrix(1,0,0,1,441.114549675975,0)"><svg viewBox="0 0 147.92416747053923 112.05400370682392" height="112.05400370682392" width="147.92416747053923"><g><svg xmlns="http://www.w3.org/2000/svg" xmlns:xlink="http://www.w3.org/1999/xlink" version="1.1" x="0" y="0" viewBox="4.776307858951087 14.651000000000002 90.95592126619817 68.9" enable-background="new 0 0 100 100" xml:space="preserve" height="112.05400370682392" width="147.92416747053923" class="icon-icon-0" data-fill-palette-color="accent" id="icon-0"><path d="M84.975 52.383l-11.027 3.593c0.053-2.602-0.304-5.349-0.607-6.735l9.588-3.117c5.178-1.704 7.607-8.572 5.401-15.32-1.809-5.534-6.432-9.549-11.015-9.549-0.818 0-1.624 0.132-2.363 0.37L42.712 32.137c-4.913 1.598-7.383 7.911-5.653 14.396 0.053 0.277 0.132 0.568 0.251 0.911 1.823 5.626 6.353 9.549 11.001 9.549 0.806 0 1.611-0.132 2.377-0.37l8.466-2.76c0.29 3.553-1.097 6.907-3.474 7.673L49.58 63.53l-0.211 0.013c-8.254 0.555-15.519-5.362-18.345-14.025l-0.04-0.159c-0.053-0.158-0.105-0.317-0.172-0.555-0.964-3.275-1.162-6.722-0.581-9.984 1.136-6.353 5.032-11.2 10.434-12.956l32.238-10.526c1.4-0.449 2.893-0.687 4.411-0.687 7.476 0 14.581 5.798 17.302 14.105C97.931 38.978 93.612 49.57 84.975 52.383z" fill="#ffffff" data-fill-palette-color="accent"></path><path d="M69.534 48.856c0.66 3.275 2.139 8.162-0.568 14.014-1.545 4.503-4.569 7.989-9.1 9.468l-10.209 3.328-22.03 7.186c-1.426 0.463-2.905 0.699-4.424 0.699-7.475 0-14.581-5.811-17.288-14.117-1.571-4.821-1.519-9.894 0.172-14.278 1.77-4.556 5.217-7.95 9.456-9.336l10.804-3.513c-0.106 2.245 0.079 4.504 0.568 6.709 0 0.013 0 0.026 0.013 0.04l-9.351 3.024c-3.236 1.07-4.728 3.883-5.31 5.441-1.149 2.932-1.175 6.537-0.079 9.866 1.836 5.625 6.366 9.561 11.015 9.561 0.819 0 1.611-0.131 2.377-0.383l21.276-6.854 3.145-0.965c1.241-0.41 6.379-1.994 6.379-1.994 2.693-0.885 5.084-3.196 6.458-6.048 1.281-2.656 1.677-5.865 0.62-9.1-0.065-0.291-0.145-0.557-0.237-0.859-1.836-5.626-6.366-9.549-11.028-9.549-0.779 0-1.571 0.132-2.363 0.383l-8.915 2.918c-0.33-3.592 1.03-6.841 3.407-7.607l6.881-2.258h0.026c0.317-0.026 0.647-0.04 0.964-0.04 7.476 0 14.594 5.798 17.288 14.092L69.534 48.856z" fill="#ffffff" data-fill-palette-color="accent"></path></svg></g></svg></g></svg></g><defs></defs></svg><rect width="395.52" height="75.240554238643" fill="none" stroke="none" visibility="hidden"></rect></g></svg></g></svg>